<svg viewBox="0 0 96 96" fill="none" xmlns="http://www.w3.org/2000/svg">
  <rect width="96" height="96" rx="22" fill="#001a2e" />
  <circle cx="48" cy="48" r="36" stroke="#22d3ee" stroke-width="1" stroke-opacity="0.18" />
  <circle cx="48" cy="48" r="24" stroke="#22d3ee" stroke-width="1.2" stroke-opacity="0.32" />
  <circle cx="48" cy="48" r="12" stroke="#22d3ee" stroke-width="1.4" stroke-opacity="0.55" />
  <line x1="48" y1="10" x2="48" y2="18" stroke="#22d3ee" stroke-width="1" stroke-opacity="0.3"
    stroke-linecap="round" />
  <line x1="48" y1="78" x2="48" y2="86" stroke="#22d3ee" stroke-width="1" stroke-opacity="0.3"
    stroke-linecap="round" />
  <line x1="10" y1="48" x2="18" y2="48" stroke="#22d3ee" stroke-width="1" stroke-opacity="0.3"
    stroke-linecap="round" />
  <line x1="78" y1="48" x2="86" y2="48" stroke="#22d3ee" stroke-width="1" stroke-opacity="0.3"
    stroke-linecap="round" />
  <path d="M48 48 L82 22" stroke="#22d3ee" stroke-width="2" stroke-linecap="round" stroke-opacity="0.9" />
  <path d="M48 48 L82 22 A39 39 0 0 0 48 9 Z" fill="#22d3ee" fill-opacity="0.08" />
  <circle cx="34" cy="62" r="4.5" fill="none" stroke="#22d3ee" stroke-width="2" />
  <circle cx="34" cy="38" r="4.5" fill="none" stroke="#22d3ee" stroke-width="2" />
  <circle cx="62" cy="38" r="4.5" fill="#22d3ee" />
  <path d="M58 33.5 L62 38 L58 42.5" fill="none" stroke="#001a2e" stroke-width="1.8" stroke-linecap="round"
    stroke-linejoin="round" />
  <line x1="34" y1="42.5" x2="34" y2="57.5" stroke="#22d3ee" stroke-width="2" stroke-linecap="round" />
  <path d="M62 42.5 Q62 62 48 62 Q40 62 34 62" stroke="#22d3ee" stroke-width="1.8" stroke-linecap="round"
    fill="none" stroke-dasharray="3 2.5" />
  <circle cx="72" cy="30" r="3.5" fill="#22d3ee" opacity="0.85" />
  <circle cx="48" cy="48" r="3" fill="#22d3ee" opacity="0.6" />
</svg>
